<?xml version="1.0" encoding="utf-8"?>
<!-- Generator: Adobe Illustrator 21.0.2, SVG Export Plug-In . SVG Version: 6.00 Build 0)  -->
<svg version="1.1" id="Layer_1" xmlns="http://www.w3.org/2000/svg" xmlns:xlink="http://www.w3.org/1999/xlink" x="0px" y="0px"
	 viewBox="0 0 409.4 657" style="enable-background:new 0 0 409.4 657;" xml:space="preserve">
<style type="text/css">
	.st0{fill:#F8B64C;}
	.st1{fill:#FFD15C;}
	.st2{fill:#FF7058;}
	.st3{fill:#F2F2F2;}
	.st4{fill:#40596B;}
	.st5{fill:#84DBFF;}
	.st6{fill:#54C0EB;}
</style>
<path class="st0" d="M232,461.3l-26.6-28.1l-26.6,28.1c-43.6,45.1-42.9,118.2,0,164l26.6,28.1l26.6-28.1
	C274.9,579.5,275.6,506.4,232,461.3z"/>
<path class="st1" d="M224.6,483.5l-18.5-19.9l-18.5,19.9c-31,32.5-31,85.7,0,118.2l18.5,19.9l18.5-19.9
	C255.6,569.2,255.6,516,224.6,483.5z"/>
<path class="st2" d="M345,569.9c3-10.3,3.7-21.4,3.7-31.8c0-26.6-7.4-51.7-20.7-73.9c-25.1-41.4-70.9-69.5-122.6-69.5
	s-97.5,28.1-122.6,69.5c-12.6,21.4-20.7,47.3-20.7,73.9c0,10.3,1.5,22.2,3.7,31.8C25.9,533,0,479.1,0,419.9
	c0-47.3,15.5-89.4,41.4-124.1c37.7-49.5,96.8-80.5,163.3-80.5c66.5,0,126.3,31.8,163.3,80.5c25.9,34.7,42.1,77.6,41.4,124.1
	C410.8,479.1,384.9,533,345,569.9z"/>
<path class="st3" d="M280.8,507.1c105.7-147,90.1-348.7-48-479.5L205.4,1.8l-27.3,25.9C39.9,158.4,24.4,360.1,130,507.1H280.8z"/>
<g>
	<path class="st4" d="M88.7,433.2c11.1,25.9,25.1,50.2,41.4,73.9h149.2c17-22.9,30.3-48,41.4-73.9L88.7,433.2z"/>
	<path class="st4" d="M308.8,127.4c-19.2-35.5-44.3-69.5-76.1-99.7L205.4,1.8l-27.3,25.9c-31.8,30.3-56.9,64.3-76.1,99.7
		L308.8,127.4z"/>
</g>
<path class="st3" d="M130,507.1c5.9,8.9,13.3,17.7,19.9,25.9h109.3c7.4-8.9,14-17,19.9-25.9H130z"/>
<ellipse transform="matrix(0.7071 -0.7071 0.7071 0.7071 -114.7153 217.4146)" class="st4" cx="205.1" cy="247.2" rx="80.5" ry="80.5"/>
<ellipse transform="matrix(0.7071 -0.7071 0.7071 0.7071 -114.7153 217.4146)" class="st5" cx="205.1" cy="247.2" rx="56.4" ry="56.4"/>
<path class="st6" d="M199.5,202.7c28.1,0,50.2,22.2,50.2,50.2c0,26.6-20.7,48.8-47.3,50.2c1.5,0,2.2,0.7,3,0
	c31,0,56.2-25.1,56.2-56.2s-25.1-56.2-56.2-56.2s-56.2,25.1-56.2,56.2c0,1.5,0.7,2.2,0,3C151.5,224.1,172.9,202.7,199.5,202.7z"/>
</svg>
